# xmcd
#
# Track frame offsets: 
#        150
#        12390
#        24332
#        37107
#        52212
#        64310
#        76352
#        88435
#        101755
#        113372
#        127917
#        142932
#        158415
#        173235
#        188020
#        201162
#        213602
#        229290
#        243445
#        256490
#        272632
#        285397
#        299805
#        314355
#
# Disc length: 4357 seconds
#
# Revision: 6
# Processed by: cddbd v1.5.2PL0 Copyright (c) Steve Scherf et al.
# Submitted via: ExactAudioCopy v1.3
#
DISCID=64110318
DTITLE=Fats Waller - Fats Waller - A Portrait of  - CD 1-2 - 
DYEAR=1997
DGENRE=Jazz
TTITLE0=Honeysuckle Rose
TTITLE1=Whose Honey Are You?
TTITLE2=Twelfth Street Rag
TTITLE3=Tea For Two
TTITLE4=I Wish I Were Twins
TTITLE5=Lulu's Back In Town
TTITLE6=The Minor Drag
TTITLE7=Blue Because Of You
TTITLE8=Mandy
TTITLE9=I Got Rhythm
TTITLE10=Rhythm and Romance
TTITLE11=I'm Growing Fonder Of You
TTITLE12=You're Not The Only Oyster In The Stew
TTITLE13=Breakin' The Ice
TTITLE14=I Can't Give You Anything But Love Baby
TTITLE15=Have A Little Dream On Me
TTITLE16=Let's Pretend There's A Moon
TTITLE17=Dinah
TTITLE18=Don't Let It Bother You
TTITLE19=My Very Good Friend, The Milkman
TTITLE20=Handful Of Keys
TTITLE21=Keepin' Out Of Mischief Now
TTITLE22=Ring Dem Bells
TTITLE23=How Can You Face Me?
EXTD=YEAR: 1997
EXTT0=
EXTT1=
EXTT2=
EXTT3=
EXTT4=
EXTT5=
EXTT6=
EXTT7=
EXTT8=
EXTT9=
EXTT10=
EXTT11=
EXTT12=
EXTT13=
EXTT14=
EXTT15=
EXTT16=
EXTT17=
EXTT18=
EXTT19=
EXTT20=
EXTT21=
EXTT22=
EXTT23=
PLAYORDER=
